<?xml version="1.0" encoding="utf-8"?>
<!-- Generator: Adobe Illustrator 26.4.1, SVG Export Plug-In . SVG Version: 6.00 Build 0)  -->
<svg version="1.1" id="Capa_1" xmlns="http://www.w3.org/2000/svg" xmlns:xlink="http://www.w3.org/1999/xlink" x="0px" y="0px"
	 viewBox="0 0 285 330" style="enable-background:new 0 0 285 330;" xml:space="preserve">
<style type="text/css">
	.st0{fill:#DEE45E;}
</style>
<g id="Capa_2_00000091707327866832476200000012817716109915385499_">
	<g id="Layer_1">
		<path class="st0" d="M243.5,101.8v-3.4c0-16.9,0-34.8,0-51.7c0-11.2-2.2-13.5-11.2-13.5h-200c-9,0-11.2,2.2-11.2,13.5
			s0,25.8,0,39.3c0,7.9,0,7.9-6.7,7.9s-9,2.2-9,10.1c0,19.1,0,39.3,0,58.4c0,6.7,3.4,10.1,7.9,10.1c2.2,0,4.5,0,7.9,0
			c0,12.4,0,23.6,0,34.8c0,5.6-1.1,7.9-5.6,7.9c-7.9,0-10.1,3.4-10.1,13.5c0,18,0,36,0,53.9c-1.1,4.5,1.1,10.1,4.5,13.5h133.7
			c9,2.2,16.9,2.2,25.8,2.2c7.9,0,16.9-1.1,24.7-2.2h28.1c3.4-3.4,4.5-7.9,4.5-13.5c52.8-31.5,70.8-101.1,39.3-153.9
			C260.4,118.6,252.5,108.5,243.5,101.8L243.5,101.8z M36.8,52.3h192.1c0,13.5,0,25.8,0,38.2c-38.2-23.6-86.5-22.5-122.5,3.4h-64
			c-6.7,0-6.7,0-6.7-7.9V52.3H36.8z M19.9,147.8c0-10.1,0-19.1,0-29.2c0-4.5,1.1-6.7,4.5-6.7c18,0,37.1,0,55.1,0H84
			c-10.1,12.4-18,27-22.5,42.7H26.7C22.2,154.6,19.9,153.5,19.9,147.8z M36.8,173.7h21.3c0,4.5-1.1,7.9-1.1,12.4
			c0,10.1,1.1,20.2,4.5,29.2H42.4c-4.5,0-5.6-2.2-5.6-7.9C36.8,197.3,36.8,186,36.8,173.7z M19.9,277v-15.7c0-6.7,0-13.5,0-21.3
			c0-3.4,1.1-5.6,4.5-5.6h42.7c7.9,16.9,19.1,30.3,33.7,41.6H19.9V277z M227.8,264.7c-4.5,3.4-10.1,6.7-15.7,9
			c-2.2,1.1-4.5,2.2-5.6,2.2c-12.4,4.5-24.7,7.9-38.2,6.7c-34.8,0-66.3-19.1-83.1-48.3c-3.4-5.6-6.7-12.4-9-19.1
			c-3.4-10.1-4.5-20.2-4.5-30.3c0-3.4,0-7.9,1.1-11.2c0-6.7,2.2-13.5,4.5-19.1c5.6-15.7,15.7-30.3,28.1-41.6
			c10.1-9,21.3-14.6,33.7-19.1c10.1-4.5,21.3-5.6,31.5-5.6s19.1,2.2,28.1,4.5c12.4,4.5,23.6,10.1,33.7,19.1
			c40.4,34.8,46.1,96.6,11.2,137.1C239,254.6,233.4,260.2,227.8,264.7L227.8,264.7z"/>
	</g>
</g>
<g id="glieJg_00000071537940840782057930000006984038487373050775_">
	<path class="st0" d="M120.6,239.9c24.8-0.7,45,15.2,68.2,22.9c-9.5-8.9-13.5-18.9-6.6-32.3c2,0,4.8-0.1,7.6,0
		c7.1,0.4,10.4-2.5,11.7-10c0.8-4.9,1.7-9.9,2.4-14.8c0.4-3.7,0.6-7.2,5.4-7.2c0.6,0,3.5-1.8,3.4-3.4c-0.3-2.5-3.1-6.2-4-8.6
		c-1.4-5.1-1.6-10.4-0.6-15.7c1.1-6.9-0.8-14.5-1.6-21.9c-0.4-5.1-1-10-1.6-15.1c0-0.7,0-1.8-0.4-2.1c-5.1-4.5-8.5-10.9-15.7-13.4
		c-14.1-5.1-27.8-1.6-41.8-0.1c-13.1,1.4-21.3,7.5-26.2,20.7c-1.8,4.8-3,9.7-3.2,14.8c-1,15.8,3.8,29.3,11.7,42
		c3.5,5.6,5.1,11.4,3.4,18.1c-0.1,0.4-0.1,0.8-0.1,1.1c0,8.9-2.7,16.4-9.7,21.4c-0.7,0.6-1.3,1.4-1.8,2.1
		C120.5,238.5,120.6,238.8,120.6,239.9z"/>
</g>
</svg>
