<?xml version="1.0" encoding="utf-8"?>
<!-- Generator: Adobe Illustrator 26.4.1, SVG Export Plug-In . SVG Version: 6.00 Build 0)  -->
<svg version="1.1" id="Capa_1" xmlns="http://www.w3.org/2000/svg" xmlns:xlink="http://www.w3.org/1999/xlink" x="0px" y="0px"
	 viewBox="0 0 285 330" style="enable-background:new 0 0 285 330;" xml:space="preserve">
<style type="text/css">
	.st0{fill:#DEE45E;}
</style>
<g id="Capa_2_00000015335819204681529970000002393579200394697128_">
	<g id="Layer_1">
		<path class="st0" d="M110.3,216.7c-0.9-0.9-1.7-1.7-1.7-2.6c0-3.5,0-7.8,0-11.3c0-1.7,0.9-2.6,2.6-2.6c1.7,0,1.7,0,1.7-1.7
			c0-1.7,0-4.3,0-6.9h-1.7c-0.9,0-1.7-0.9-2.6-1.7c0,0,0,0,0-0.9c0-4.3,0-7.8,0-12.2c0-1.7,0.9-2.6,2.6-2.6s1.7,0,1.7-1.7v-7.8
			c0-2.6,0.9-2.6,2.6-2.6h53.8c2.6,0,2.6,0.9,2.6,2.6c0,1.7,0,6.9,0,10.4c0,3.5-0.9,2.6-2.6,2.6h-0.9v8.7h1.7c0.9,0,1.7,0.9,1.7,1.7
			l0,0c0,4.3,0,8.7,0,12.2c0,1.7-0.9,1.7-2.6,1.7s-1.7,0-1.7,1.7s0,5.2,0,7.8c0,0.9,0,2.6-0.9,3.5L110.3,216.7z M169.4,191.5h-52.1
			c0,2.6,0,4.3,0,6.9c0,2.6,0,1.7,1.7,1.7h50.4V191.5z M117.3,166.3v6.9c0,1.7,0,1.7,1.7,1.7h48.6h0.9c0,0,0.9,0,0.9-0.9v-7.8H117.3
			z M164.1,178.5h-34.7c-5.2,0-10.4,0-14.8,0c-0.9,0-1.7,0-1.7,1.7s0,4.3,0,6.1s0,1.7,1.7,1.7H165L164.1,178.5z M164.1,203.6h-50.4
			c-0.9,0-0.9,0-0.9,0.9v7.8H165L164.1,203.6z"/>
		<path class="st0" d="M140.7,103.8c-16.5,0.9-28.7,13.9-28.7,30.4c0.9,16.5,13.9,28.7,30.4,28.7c15.6-0.9,28.7-13.9,28.7-29.5
			C170.2,115.9,157.2,102.9,140.7,103.8z M140.7,157.6c-13.9,0-25.2-12.2-24.3-26c0-13.9,12.2-25.2,26-24.3
			c13.9,0,25.2,12.2,24.3,25.2C166.7,147.2,154.6,158.5,140.7,157.6L140.7,157.6L140.7,157.6z"/>
		<g id="glieJg">
			<path class="st0" d="M128.5,146.3c6.9,0.9,13,3.5,19.1,6.1c-2.6-1.7-3.5-6.1-1.7-8.7h1.7c1.7,0,2.6-0.9,3.5-2.6s0.9-2.6,0.9-4.3
				s0-1.7,1.7-1.7c1.7,0,0.9,0,0.9-0.9c0-0.9-0.9-1.7-0.9-2.6c0-1.7,0-2.6,0-4.3s0-4.3-0.9-6.1c0-1.7,0-2.6,0-4.3s0-0.9,0-0.9
				c-1.7-0.9-2.6-2.6-4.3-3.5c-3.5-0.9-7.8-0.9-11.3,0c-3.5,0-6.1,2.6-6.9,5.2c-0.9,0.9-0.9,2.6-0.9,4.3c0,4.3,0.9,7.8,2.6,11.3
				c0.9,1.7,1.7,3.5,0.9,5.2l0,0c0,2.6-0.9,4.3-2.6,6.1L128.5,146.3L128.5,146.3z"/>
		</g>
		<path class="st0" d="M244,254v-9.6h-32.1c-3.5,0-6.1-2.6-6.1-6.1c0-4.3,0-7.8,0-10.4h39.1v-10.4l0.9-0.9l18.2,19.1l-18.2,19.1
			L244,254z"/>
		<path class="st0" d="M200.6,196.7v9.6h32.1c3.5,0,6.1,2.6,6.1,6.1c0,3.5,0,7.8,0,10.4h-38.2v10.4l-0.9,0.9l-18.2-19.1l18.2-19.1
			L200.6,196.7z"/>
		<path class="st0" d="M140.7,271.4c-5.2,0-9.6,5.2-9.6,10.4s5.2,9.6,10.4,9.6s9.6-4.3,9.6-10.4
			C151.1,275.7,145.9,271.4,140.7,271.4L140.7,271.4z M140.7,288.7c-4.3,0-7.8-3.5-6.9-7.8c0-4.3,3.5-7.8,7.8-6.9
			c4.3,0,6.9,3.5,6.9,7.8C148.5,285.3,145,288.7,140.7,288.7C140.7,289.6,140.7,289.6,140.7,288.7L140.7,288.7z"/>
		<path class="st0" d="M127.7,41.3h26c0,0,0.9,0,0.9,0.9v6.9c0,0,0,0.9-0.9,0.9h-26c0,0-0.9,0-0.9-0.9L127.7,41.3
			C126.8,41.3,127.7,41.3,127.7,41.3z"/>
		<path class="st0" d="M217.1,248.8v22.6c0,16.5-10.4,30.4-22.6,30.4H86.9c-12.2,0-22.6-13-22.6-30.4V71.7h152.8V201h11.3V58.6
			c0-21.7-14.8-39.1-32.1-39.1h-112C66.9,19.6,53,36.9,53,58.6v212.7c0,21.7,13.9,39.1,31.3,39.1h112c17.4,0,31.3-17.4,31.3-39.1
			v-22.6H217.1z M86.9,30.9h107.7c11.3,0,20.8,11.3,22.6,26H64.3C66,42.1,74.7,30.9,86.9,30.9z"/>
	</g>
</g>
</svg>
