<?xml version="1.0" encoding="utf-8"?>
<!-- Generator: Adobe Illustrator 26.4.1, SVG Export Plug-In . SVG Version: 6.00 Build 0)  -->
<svg version="1.1" id="Layer_1" xmlns="http://www.w3.org/2000/svg" xmlns:xlink="http://www.w3.org/1999/xlink" x="0px" y="0px"
	 viewBox="0 0 285 330" style="enable-background:new 0 0 285 330;" xml:space="preserve">
<style type="text/css">
	.st0{fill:#DEE45E;}
	.st1{fill:#282560;}
</style>
<g id="Capa_2_00000023239399020727817550000014613111590890183572_">
	<g>
		<path class="st0" d="M280,223.2c0-3.1-2-4.7-5.2-4.9c-1.7-0.1-3.3,0-5.2,0v-21.8c1.3-0.1,2.3-0.2,3.2-0.2c6-0.1,7.3-1.4,7.3-7.4
			c0-9,0-18.2,0-27.2c0-6.1-1.3-7.3-7.6-7.4h-135c-6.2,0-7.6,1.3-7.6,7.4c0,6.8,0,13.4,0,20.2c0,4.3,0,4.3-4.3,4.3
			c-2.9,0-4.7,0.7-5.6,2.3c2.4,1.3,4.6,2.8,6.7,4.5c1.3,1.1,2.4,2.3,3.4,3.6c0.8-0.5,1.7-0.7,2.6-0.6c12.5,0.1,24.8,0,37.3,0h89.2
			v21.8c-1.3,0.1-2.5,0.2-3.6,0.2c-36.1,0-72.2,0-108.3,0.1c2,2.8,2.9,6.7,3.9,10.1h118.8v21.5c-1.3,0.1-2.5,0.2-3.6,0.2
			c-37.5,0-75.1,0-112.5,0.1c0,0.3,0,0.7-0.1,1c-0.4,3-0.5,6.1-1.2,8.9h106.5v21.7H146.5c-1.5,2.4-2.9,4.7-4.4,7
			c-0.7,1.1-1.5,2.2-2.4,3.2h126.6c2.5-2,3.2-4.4,3.1-7.6c-0.2-6.6,0-13.2,0-19.8c0-5.1-0.1-4.4,4.5-4.5c4,0,6.1-1.7,6.1-5.1
			C280.1,244.3,280.1,233.8,280,223.2z M268.5,186.3c-0.9,0.2-1.8,0.2-2.6,0.1H144.3c-4.3,0-4.3,0-4.3-4.3v-17.4h130
			c0,6.8,0,13.4-0.1,20.1C269.9,185.3,269.1,186.1,268.5,186.3L268.5,186.3z"/>
		<path class="st0" d="M79.7,32.8c-41.2,0.1-75,33.6-74.8,74.3c0.2,38.9,31,73.8,75.3,73.7c44.4-0.1,75-35.5,75-74.1
			C155.1,65.9,121.2,32.7,79.7,32.8z M79.3,170.8c-35.9-0.5-64.7-29.4-64.2-64.8c0.4-35.3,30.1-63.8,66.1-63.3
			c35.3,0.5,64.3,29.7,63.9,64.5C144.7,142.9,115.2,171.3,79.3,170.8z"/>
		<path class="st0" d="M79.7,176.2c-41.2,0.1-75,33.6-74.8,74.3c0.2,38.9,31,73.8,75.3,73.7c44.4-0.1,75-35.5,75-74.1
			C155.1,209.2,121.2,176.1,79.7,176.2z M79.3,314.1c-35.9-0.5-64.7-29.4-64.2-64.8c0.4-35.3,30.1-63.8,66.1-63.3
			c35.3,0.5,64.3,29.7,63.9,64.5C144.7,286.2,115.2,314.6,79.3,314.1z"/>
		<path class="st0" d="M199.1,5.9c-30.9,0-58.7,19.1-70,48c0.1,0.2,0.2,0.5,0.4,0.7c2.8,2,5.4,4.2,7.8,6.7
			c8.2-26.6,33.6-45.8,63.3-45.4c35.3,0.5,64.3,29.7,63.9,64.5c-0.4,35.6-29.8,64-65.8,63.6c-17.9-0.2-34.8-7.7-47.1-20.7
			c-0.9,3.6-2.3,7.2-4.1,10.4c13.1,12.5,31.1,20.4,52.2,20.4c44.4-0.1,75-35.5,75-74.1C274.6,38.8,240.8,5.8,199.1,5.9z"/>
		<g id="glieJg">
			<path class="st0" d="M168.9,114.4c17.3-0.5,31.3,10.6,47.4,15.9c-6.6-6.2-9.4-13.1-4.6-22.5c1.4,0,3.3-0.1,5.3,0
				c4.9,0.3,7.3-1.8,8.1-7c0.6-3.4,1.2-6.9,1.7-10.3c0.3-2.6,0.4-5,3.7-5c0.4,0,2.5-1.3,2.4-2.4c-0.2-1.8-2.2-4.3-2.7-6
				c-1-3.5-1.1-7.3-0.4-10.9c0.8-4.8-0.6-10.1-1.1-15.2c-0.3-3.5-0.7-7-1.1-10.5c0-0.5,0-1.3-0.3-1.5c-3.5-3.1-5.9-7.6-10.9-9.3
				c-9.8-3.5-19.3-1.1-29-0.1c-9.1,1-14.8,5.2-18.2,14.4c-1.3,3.3-2.1,6.8-2.3,10.3c-0.7,11,2.6,20.4,8.1,29.2
				c2.5,3.9,3.5,7.9,2.4,12.6c-0.1,0.3-0.1,0.6-0.1,0.8c0,6.2-1.9,11.4-6.8,14.9c-0.5,0.4-0.9,1-1.3,1.5
				C168.8,113.4,168.9,113.6,168.9,114.4z"/>
		</g>
		<g id="glieJg_00000071537940840782057930000006984038487373050775_">
			<path class="st0" d="M43.8,142c17.3-0.5,31.3,10.6,47.4,15.9c-6.6-6.2-9.4-13.1-4.6-22.5c1.4,0,3.3-0.1,5.3,0
				c4.9,0.3,7.3-1.8,8.1-7c0.6-3.4,1.2-6.9,1.7-10.3c0.3-2.6,0.4-5,3.7-5c0.4,0,2.5-1.3,2.4-2.4c-0.2-1.8-2.2-4.3-2.7-6
				c-1-3.5-1.1-7.3-0.4-10.9c0.8-4.8-0.6-10.1-1.1-15.2c-0.3-3.5-0.7-7-1.1-10.5c0-0.5,0-1.3-0.3-1.5c-3.5-3.1-5.9-7.6-10.9-9.3
				c-9.8-3.5-19.3-1.1-29-0.1c-9.1,1-14.8,5.2-18.2,14.4c-1.3,3.3-2.1,6.8-2.3,10.3c-0.7,11,2.6,20.4,8.1,29.2
				c2.5,3.9,3.5,7.9,2.4,12.6c-0.1,0.3-0.1,0.6-0.1,0.8c0,6.2-1.9,11.4-6.8,14.9c-0.5,0.4-0.9,1-1.3,1.5
				C43.7,141.1,43.8,141.2,43.8,142z"/>
		</g>
		<g id="glieJg_00000037669477620402674440000003338704352943040653_">
			<path class="st0" d="M49.1,285.4c17.3-0.5,31.3,10.6,47.4,15.9c-6.6-6.2-9.4-13.1-4.6-22.5c1.4,0,3.3-0.1,5.3,0
				c4.9,0.3,7.3-1.8,8.1-7c0.6-3.4,1.2-6.9,1.7-10.3c0.3-2.6,0.4-5,3.7-5c0.4,0,2.5-1.3,2.4-2.4c-0.2-1.8-2.2-4.3-2.7-6
				c-1-3.5-1.1-7.3-0.4-10.9c0.8-4.8-0.6-10.1-1.1-15.2c-0.3-3.5-0.7-7-1.1-10.5c0-0.5,0-1.3-0.3-1.5c-3.5-3.1-5.9-7.6-10.9-9.3
				c-9.8-3.5-19.3-1.1-29-0.1c-9.1,1-14.8,5.2-18.2,14.4c-1.3,3.3-2.1,6.8-2.3,10.3c-0.7,11,2.6,20.4,8.1,29.2
				c2.5,3.9,3.5,7.9,2.4,12.6c-0.1,0.3-0.1,0.6-0.1,0.8c0,6.2-1.9,11.4-6.8,14.9c-0.5,0.4-0.9,1-1.3,1.5
				C49,284.4,49.1,284.6,49.1,285.4z"/>
		</g>
	</g>
</g>
<path class="st0" d="M109.2-133.6"/>
<path class="st0" d="M131.2-125.6"/>
<path class="st0" d="M78.2-146.6"/>
<path class="st1" d="M-304.8-200.6"/>
</svg>
