<?xml version="1.0" encoding="utf-8"?>
<!-- Generator: Adobe Illustrator 26.4.1, SVG Export Plug-In . SVG Version: 6.00 Build 0)  -->
<svg version="1.1" id="Capa_1" xmlns="http://www.w3.org/2000/svg" xmlns:xlink="http://www.w3.org/1999/xlink" x="0px" y="0px"
	 viewBox="0 0 285 330" style="enable-background:new 0 0 285 330;" xml:space="preserve">
<style type="text/css">
	.st0{fill:#E2E776;}
	.st1{fill:none;stroke:#E2E776;stroke-width:5;stroke-miterlimit:10;}
</style>
<g>
	<g id="Capa_2_00000015335819204681529970000002393579200394697128_">
		<g id="Layer_1">
			<path class="st0" d="M244.1,253.4v-9.5h-32c-3.5,0-6.1-2.6-6.1-6.1c0-4.3,0-7.8,0-10.4h39V217l0.9-0.9l18.2,19.1l-18.2,19.1
				L244.1,253.4z"/>
			<path class="st0" d="M141,270.7c-5.2,0-9.5,5.2-9.5,10.4c0,5.2,5.2,9.5,10.4,9.5s9.5-4.3,9.5-10.4
				C151.4,275,146.2,270.7,141,270.7L141,270.7z M141,288c-4.3,0-7.8-3.5-6.9-7.8c0-4.3,3.5-7.8,7.8-6.9c4.3,0,6.9,3.5,6.9,7.8
				C148.8,284.5,145.4,288,141,288C141,288.9,141,288.9,141,288L141,288z"/>
			<path class="st0" d="M128,41.2h26c0,0,0.9,0,0.9,0.9V49c0,0,0,0.9-0.9,0.9h-26c0,0-0.9,0-0.9-0.9L128,41.2
				C127.2,41.2,128,41.2,128,41.2z"/>
			<path class="st0" d="M217.2,248.2v22.5c0,16.5-10.4,30.3-22.5,30.3H87.3c-12.1,0-22.5-13-22.5-30.3V71.5h152.4v150.7h11.3V58.5
				c0-21.6-14.7-39-32-39H84.7c-17.3,0-31.2,17.3-31.2,39v212.2c0,21.6,13.9,39,31.2,39h111.7c17.3,0,31.2-17.3,31.2-39v-22.5H217.2
				z M87.3,30.8h107.4c11.3,0,20.8,11.3,22.5,26H64.8C66.6,42.1,75.2,30.8,87.3,30.8z"/>
		</g>
	</g>
	<g id="Capa_2_00000010998170413723624580000006167157433086047404_">
		<g id="Layer_1_00000036960723491487027450000017617668726040578221_">
			<circle class="st1" cx="100.3" cy="120.9" r="14.7"/>
			<circle class="st1" cx="140.2" cy="220.5" r="14.7"/>
			<path class="st1" d="M140.2,171.1v34.6"/>
			<circle class="st1" cx="180" cy="120.9" r="14.7"/>
			<path class="st1" d="M100.3,135.6c0,23.4,21.6,34.6,39.8,34.6 M180,135.6c0,23.4-21.6,34.6-39.8,34.6"/>
		</g>
	</g>
</g>
</svg>
