<?xml version="1.0" encoding="utf-8"?>
<!-- Generator: Adobe Illustrator 26.4.1, SVG Export Plug-In . SVG Version: 6.00 Build 0)  -->
<svg version="1.1" id="Capa_1" xmlns="http://www.w3.org/2000/svg" xmlns:xlink="http://www.w3.org/1999/xlink" x="0px" y="0px"
	 viewBox="0 0 285 330" style="enable-background:new 0 0 285 330;" xml:space="preserve">
<style type="text/css">
	.st0{fill:#DEE45E;}
</style>
<g id="Capa_2_00000115474372119134518680000004047180745499910018_">
	<g id="Layer_1">
		<path class="st0" d="M113.5,58.2c-30.1,0-54.2,24.1-54.2,54.2v0.8c0.8,29.3,24.1,52.7,53.4,53.4c30.1,1.5,54.9-21.8,56.4-51.9
			c1.5-30.1-21.8-54.9-51.9-56.4C115.8,58.2,114.3,58.2,113.5,58.2 M113.5,74.7c21.1-0.8,38.4,15,39.9,35.4
			c0.8,18.1-11.3,34.6-29.3,38.4c-20.3,6-42.1-6-47.4-27.1c-1.5-2.3-1.5-6-1.5-9l0,0C75.2,91.3,92.5,74.7,113.5,74.7L113.5,74.7
			 M113.5,180C77.4,180,5.2,198.1,5.2,234.2v37.6c0,1.5,1.5,3,3,3h209.9c1.5,0,3-1.5,3-3v-37.6C221.1,198.1,149.6,180,113.5,180
			 M113.5,195.1c44.4,0,91.8,24.8,91.8,39.1v21.1c0,1.5-1.5,3-3,3h-176c-1.5,0-3-1.5-3-3l0,0v-21.1
			C22.5,220.7,68.4,195.8,113.5,195.1L113.5,195.1z"/>
		<path class="st0" d="M206.1,183.1l6,11.3c0,0.8,0.8,1.5,1.5,1.5c7.5,3,49.7,19.6,50.4,39.1V256c0,1.5-1.5,3-3,3h-24.8
			c-1.5,0-3,1.5-3,3l0,0c0,3,0,6,0,9c0,1.5,1.5,3,3,3l0,0h40.6c1.5,0,3-1.5,3-3v-37.6c1.5-28.6-50.4-49.7-70-56.4
			c-1.5-0.8-3.8,0-4.5,1.5C205.3,180.8,205.3,182.3,206.1,183.1z"/>
		<path class="st0" d="M170.7,55.2c-4.5,0-9.8,0-14.3,1.5c3,4.5,6.8,9.8,9,15c1.5,0,3.8-0.8,5.3-0.8c21.1-0.8,38.4,15.8,39.1,36.1
			c0.8,17.3-11.3,33.1-28.6,37.6c-2.3,0.8-4.5,1.5-6.8,1.5c-1.5,4.5-3.8,8.3-6.8,12c-0.8,1.5-0.8,3.8,0.8,4.5
			c0.8,0.8,1.5,0.8,2.3,0.8c27.1-3.8,53.4-27.1,53.4-54.2C224.9,79.2,200.8,55.2,170.7,55.2L170.7,55.2z"/>
	</g>
</g>
</svg>
