<?xml version="1.0" encoding="utf-8"?>
<!-- Generator: Adobe Illustrator 26.4.1, SVG Export Plug-In . SVG Version: 6.00 Build 0)  -->
<svg version="1.1" id="Capa_1" xmlns="http://www.w3.org/2000/svg" xmlns:xlink="http://www.w3.org/1999/xlink" x="0px" y="0px"
	 viewBox="0 0 285 330" style="enable-background:new 0 0 285 330;" xml:space="preserve">
<style type="text/css">
	.st0{fill:#DEE45E;}
</style>
<g id="Capa_2_00000072959259708988845370000017860523195331876780_">
	<g id="Layer_1">
		<path class="st0" d="M272.8,118.1L152.2,28.3c-5.8-4.8-14.5-4.8-20.3,0L12.2,118.1c-5.8,4.8-6.8,12.6-2.9,18.3
			c2.9,2.9,6.8,4.8,10.6,4.8h245.2c7.7,0,13.5-5.8,13.5-13.5C277.7,124.8,275.7,120.9,272.8,118.1z M247.7,122.9H36.3l104.3-77.2
			c1-1,1.9-1,2.9,0L247.7,122.9z"/>
		<path class="st0" d="M238.1,244.5H45.9c-22.2,0-39.6,17.4-39.6,39.6v11.6l0,0c0,5.8,3.9,9.7,9.7,9.7h252c5.8,0,9.7-3.9,9.7-9.7
			v-11.6C277.7,261.9,260.3,244.5,238.1,244.5L238.1,244.5z M27.6,291.8v-11.6c0-13.5,14.5-24.1,33.8-24.1h162.2
			c18.3,0,33.8,10.6,33.8,24.1v12.6 M257.4,292.8l-229.8-1"/>
		<rect x="36.3" y="157.6" class="st0" width="29.9" height="71.4"/>
		<rect x="97.1" y="157.6" class="st0" width="29.9" height="71.4"/>
		<rect x="157" y="157.6" class="st0" width="29.9" height="71.4"/>
		<rect x="217.8" y="157.6" class="st0" width="29.9" height="71.4"/>
	</g>
</g>
</svg>
